<svg xmlns="http://www.w3.org/2000/svg" fill="none" viewBox="0 0 42 20"><path fill="#002D72" d="m18.879 8.648-.684-5.79c-.106-.69-.548-1.3-1.203-1.655C15.942.636 13.626 0 10 0 6.373 0 4.057.636 3.007 1.203c-.655.354-1.097.965-1.203 1.656l-.684 5.79c-.05.327-.076.657-.076.988v7.413c0 .155.137.28.306.28h1.124v1.517c0 .637.563 1.153 1.257 1.153h.011C4.436 20 5 19.484 5 18.847V17.33h10.002v1.517c0 .637.562 1.153 1.256 1.153h.012c.694 0 1.257-.516 1.257-1.153V17.33h1.124c.169 0 .306-.125.306-.28V9.637c0-.331-.026-.661-.076-.989h-.001ZM6.381 1.735h7.237a.57.57 0 1 1 0 1.14H6.381a.57.57 0 1 1 0-1.14ZM3.736 14.79a1.274 1.274 0 1 1 0-2.548 1.274 1.274 0 0 1 0 2.548Zm-.633-5.15a.572.572 0 0 1-.567-.647l.01-.07.002-.02.49-4.519a.572.572 0 0 1 .568-.51h12.788c.292 0 .537.22.568.51l.49 4.52.002.018.01.071a.573.573 0 0 1-.567.646H3.103Zm13.16 5.15a1.274 1.274 0 1 1 0-2.548 1.274 1.274 0 0 1 0 2.548Z"/><g fill="#002D72" clip-path="url(#a)"><path d="M37.96 15.11a.358.358 0 0 0 .262-.122c.372-.434.889-.72 1.454-.807a.37.37 0 0 0 .313-.363v-2.47a1.41 1.41 0 0 0-1.404-1.404h-3.637a.716.716 0 0 1-.516-.21L33.29 8.592a.377.377 0 0 1-.104-.23.363.363 0 0 1 .067-.242l2.975-4.055a.34.34 0 0 0-.089-.501 6.333 6.333 0 0 0-3.483-1.068c-1.354 0-2.673.43-3.768 1.227a.372.372 0 0 1-.473 0l-.953-.96-.005.015-.77-.77C26.536 1.846 25.57.886 24.282.917c-.544.014-1.355.222-2.115 1.13a.72.72 0 1 0 1.108.924c.335-.401.675-.601 1.037-.612.576-.02 1.155.457 1.326.639L27.7 5.057a.666.666 0 0 0 .05.045L37.69 15a.352.352 0 0 0 .27.11v.001ZM39.966 15.019c-1.123 0-2.034.91-2.034 2.032a2.034 2.034 0 0 0 4.068 0 2.034 2.034 0 0 0-2.034-2.032Z"/><path d="M27.857 6.253a.365.365 0 0 0-.284-.101.356.356 0 0 0-.27.152 1.398 1.398 0 0 0-.184 1.25l-.005.005s1.04 3.539 3.342 6.067a.348.348 0 0 1-.012.479L29.25 15.3a2.034 2.034 0 0 0-3.065 1.75 2.033 2.033 0 1 0 3.819-.976l1.26-1.255a.349.349 0 0 1 .456-.031c1.37 1.034 3.068 1.623 5.12 1.187a.349.349 0 0 0 .17-.587l-9.153-9.136Z"/></g><defs><clipPath id="a"><path fill="#fff" d="M22 0h20v20H22z"/></clipPath></defs></svg>