<svg xmlns="http://www.w3.org/2000/svg" fill="none" viewBox="0 0 20 20"><path fill="#3A3A49" d="M9.091 18.6h1.818V20H9.091z"/><path fill="#002d72" d="M19.396 9.395a9.395 9.395 0 1 1-18.79 0 9.395 9.395 0 1 1 18.79 0Z"/><path fill="#737384" fill-rule="evenodd" d="M10.001 16.79a7.395 7.395 0 1 0 0-14.79 7.395 7.395 0 0 0 0 14.79Zm0 2a9.395 9.395 0 0 0 9.395-9.395 9.395 9.395 0 1 0-18.79 0 9.395 9.395 0 0 0 9.395 9.395Z" clip-rule="evenodd"/><path fill="#fff" d="m14.305 7.83-.331-2.808a1.112 1.112 0 0 0-.584-.802c-.509-.275-1.632-.584-3.39-.584-1.759 0-2.881.309-3.39.584a1.112 1.112 0 0 0-.584.802L5.695 7.83c-.025.16-.037.32-.037.48v3.594c0 .075.066.136.148.136h.545v.735c0 .309.273.56.61.56h.005c.337 0 .61-.25.61-.56v-.735h4.849v.735c0 .309.272.56.609.56h.005c.337 0 .61-.25.61-.56v-.735h.545c.082 0 .148-.06.148-.136V8.31c0-.16-.012-.32-.037-.48Zm-6.06-3.353h3.51a.276.276 0 1 1 0 .553h-3.51a.276.276 0 1 1 0-.553Zm-1.282 6.33a.618.618 0 1 1 0-1.235.618.618 0 0 1 0 1.236ZM6.656 8.31a.277.277 0 0 1-.275-.313l.005-.034v-.01l.238-2.19a.277.277 0 0 1 .276-.248h6.2c.142 0 .26.107.276.247l.237 2.192.001.009.005.034a.278.278 0 0 1-.275.313H6.656Zm6.38 2.498a.618.618 0 1 1 0-1.236.618.618 0 0 1 0 1.236Z"/><path fill="#EC1C24" d="M.77 11.11c.802 4.368 4.63 7.678 9.23 7.678 4.6 0 8.428-3.31 9.23-7.679h-2.48a6.964 6.964 0 0 1-13.5 0H.77Z"/></svg>