<svg xmlns="http://www.w3.org/2000/svg" fill="none" viewBox="0 0 20 20"><path fill="#0E61A9" d="m18.879 8.648-.684-5.79c-.106-.69-.548-1.3-1.203-1.655C15.942.636 13.626 0 10 0 6.373 0 4.057.636 3.007 1.203c-.655.354-1.097.965-1.203 1.656l-.684 5.79c-.05.327-.076.657-.076.988v7.413c0 .155.137.28.306.28h1.124v1.517c0 .637.563 1.153 1.257 1.153h.011C4.436 20 5 19.484 5 18.847V17.33h10.002v1.517c0 .637.562 1.153 1.256 1.153h.012c.694 0 1.257-.516 1.257-1.153V17.33h1.124c.169 0 .306-.125.306-.28V9.637c0-.331-.026-.661-.076-.989h-.001ZM6.381 1.735h7.237a.57.57 0 1 1 0 1.14H6.381a.57.57 0 1 1 0-1.14ZM3.736 14.79a1.274 1.274 0 1 1 0-2.548 1.274 1.274 0 0 1 0 2.548Zm-.633-5.15a.572.572 0 0 1-.567-.647l.01-.07.002-.02.49-4.519a.572.572 0 0 1 .568-.51h12.788c.292 0 .537.22.568.51l.49 4.52.002.018.01.071a.573.573 0 0 1-.567.646H3.103Zm13.16 5.15a1.274 1.274 0 1 1 0-2.548 1.274 1.274 0 0 1 0 2.548Z"/></svg>