<svg xmlns="http://www.w3.org/2000/svg" width="20" height="20" fill="none"><path fill="#fff" fill-rule="evenodd" d="M10 0C6.434 0 3.313 1.955 1.606 4.875l3.27 2.616a5.91 5.91 0 0 1 9.127-2.036l2.815-2.989C15.188.93 12.901 0 10 0Zm0 20c2.585 0 4.682-.738 6.26-1.985l-3.437-2.687.023-.03A5.909 5.909 0 0 1 4.9 12.556l-3.314 2.535C3.29 18.03 6.42 20 10 20Zm7.27-2.927c1.65-1.81 2.503-4.31 2.503-7.073 0-.62-.043-1.228-.13-1.818H10v3.636h5.85a5.917 5.917 0 0 1-1.83 2.714l3.25 2.54ZM4.319 10c0 .41.042.807.12 1.192l-3.463 2.65A10.17 10.17 0 0 1 .227 10c0-1.373.271-2.682.76-3.874l3.438 2.75c-.07.364-.107.74-.107 1.124Z" clip-rule="evenodd"/></svg>