<svg xmlns="http://www.w3.org/2000/svg" fill="none" viewBox="0 0 20 20"><path fill="#fff" fill-rule="evenodd" d="M10.078 1.78571H15.1071C17.5727 1.78571 19.5714 3.78444 19.5714 6.25C19.5714 8.71556 17.5727 10.7143 15.1071 10.7143H14.3637C13.9399 11.7614 12.9133 12.5 11.7143 12.5C10.5152 12.5 9.48866 11.7614 9.06481 10.7143H5.46427C4.18218 10.7143 3.14284 11.7536 3.14284 13.0357C3.14284 14.0935 3.8503 14.986 4.81787 15.266C5.26323 14.2674 6.26461 13.5714 7.42856 13.5714C8.62761 13.5714 9.65417 14.31 10.078 15.3571H15.9133L15.2424 14.6861C14.824 14.2678 14.824 13.5894 15.2424 13.171C15.6608 12.7525 16.3391 12.7525 16.7576 13.171L19.2576 15.671C19.676 16.0894 19.676 16.7677 19.2576 17.1861L16.7576 19.6861C16.3391 20.1046 15.6608 20.1046 15.2424 19.6861C14.824 19.2677 14.824 18.5894 15.2424 18.171L15.9133 17.5H10.078C9.65417 18.5471 8.62761 19.2857 7.42856 19.2857C6.20836 19.2857 5.1668 18.5209 4.75724 17.4443C2.62766 17.1054 0.999985 15.2607 0.999985 13.0357C0.999985 10.5702 2.99871 8.57143 5.46427 8.57143H9.06481C9.48866 7.52434 10.5152 6.78571 11.7143 6.78571C12.9133 6.78571 13.9399 7.52434 14.3637 8.57143H15.1071C16.3893 8.57143 17.4286 7.53209 17.4286 6.25C17.4286 4.96791 16.3893 3.92857 15.1071 3.92857H10.078C9.65417 4.97566 8.62761 5.71429 7.42856 5.71429C6.2295 5.71429 5.20294 4.97566 4.7791 3.92857H2.07141C1.47968 3.92857 0.999985 3.44887 0.999985 2.85714C0.999985 2.26541 1.47968 1.78571 2.07141 1.78571H4.7791C5.20294 0.738631 6.2295 0 7.42856 0C8.62761 0 9.65417 0.738631 10.078 1.78571Z" clip-rule="evenodd"/></svg>