<svg xmlns="http://www.w3.org/2000/svg" width="20" height="20" fill="none"><g clip-path="url(#a)"><path fill="#fff" d="M19.845 7.217a1.347 1.347 0 0 0-1.252-.87h-5.4L11.253.87a1.33 1.33 0 0 0-2.495 0l-1.93 5.47h-5.4a1.33 1.33 0 0 0-.87 2.356l4.583 3.791-1.913 5.757a1.33 1.33 0 0 0 2.052 1.496l4.73-3.479 4.73 3.479a1.33 1.33 0 0 0 2.053-1.496l-1.922-5.757 4.592-3.8a1.339 1.339 0 0 0 .382-1.47Z"/><path fill="#F2A900" d="M13.196 11.36a.87.87 0 0 0-.279.982l1.4 4.226a.217.217 0 0 1-.078.252.227.227 0 0 1-.27 0l-3.478-2.539a.948.948 0 0 0-.539-.174.93.93 0 0 0-.539.174L5.97 16.83a.226.226 0 0 1-.27 0 .218.218 0 0 1-.078-.26l1.4-4.227a.87.87 0 0 0-.279-.982L3.265 8.438a.217.217 0 0 1-.07-.252.226.226 0 0 1 .21-.157H7.43a.913.913 0 0 0 .87-.6l1.46-4.157a.235.235 0 0 1 .436 0l1.46 4.157a.913.913 0 0 0 .87.6h4.061a.235.235 0 0 1 .217.157.218.218 0 0 1-.07.252l-3.538 2.921Z"/></g><defs><clipPath id="a"><path fill="#fff" d="M0 0h20v20H0z"/></clipPath></defs></svg>