<svg xmlns="http://www.w3.org/2000/svg" fill="none" viewBox="0 0 20 20"><g fill="#000" clip-path="url(#a)"><path d="M8.74995 14.9417C8.75024 14.9031 8.73938 14.8653 8.71868 14.8328C8.69799 14.8002 8.66833 14.7744 8.63328 14.7583C8.60138 14.7365 8.56361 14.7248 8.52495 14.7248C8.48628 14.7248 8.44851 14.7365 8.41661 14.7583L5.59995 16.8333C5.56579 16.8611 5.52312 16.8762 5.47911 16.8762C5.43511 16.8762 5.39244 16.8611 5.35828 16.8333C5.3205 16.8093 5.29231 16.7728 5.27861 16.7302C5.26491 16.6876 5.26656 16.6415 5.28328 16.6L6.74995 12.2083C6.80383 12.0486 6.80799 11.8762 6.76186 11.714C6.71574 11.5519 6.62151 11.4075 6.49161 11.3L2.84995 8.28333C2.81752 8.25687 2.79381 8.22125 2.78192 8.18111C2.77003 8.14098 2.7705 8.09819 2.78328 8.05833C2.79842 8.01729 2.82563 7.98179 2.86132 7.9565C2.89702 7.93122 2.93954 7.91733 2.98328 7.91667H7.20828C7.38054 7.91598 7.54836 7.86192 7.68864 7.76194C7.82892 7.66195 7.93477 7.52095 7.99161 7.35833L9.50828 3.05833C9.5209 3.01506 9.54722 2.97705 9.58328 2.95C9.61934 2.92295 9.6632 2.90833 9.70828 2.90833C9.75336 2.90833 9.79722 2.92295 9.83328 2.95C9.86934 2.97705 9.89566 3.01506 9.90828 3.05833L11.4249 7.35833C11.4818 7.52095 11.5876 7.66195 11.7279 7.76194C11.8682 7.86192 12.036 7.91598 12.2083 7.91667H16.4333C16.4759 7.91784 16.5171 7.93205 16.5514 7.95738C16.5856 7.98272 16.6113 8.01795 16.6249 8.05833C16.6412 8.09705 16.6443 8.14003 16.6338 8.18068C16.6232 8.22134 16.5996 8.2574 16.5666 8.28333L16.2583 8.54167C16.2275 8.56583 16.2041 8.5982 16.1908 8.63504C16.1775 8.67189 16.1749 8.71174 16.1833 8.75C16.1948 8.78638 16.2154 8.81923 16.2431 8.84547C16.2708 8.87171 16.3047 8.89047 16.3416 8.9C16.8055 9.00263 17.2558 9.15925 17.6833 9.36667C17.7168 9.3882 17.7559 9.39965 17.7958 9.39965C17.8357 9.39965 17.8747 9.3882 17.9083 9.36667L18.9749 8.48333C19.1706 8.31612 19.3098 8.09259 19.3737 7.84328C19.4375 7.59398 19.4229 7.33104 19.3317 7.09037C19.2405 6.8497 19.0773 6.64304 18.8643 6.4986C18.6513 6.35416 18.3989 6.27898 18.1416 6.28333H12.7999L10.8749 0.833333C10.7905 0.590851 10.633 0.380507 10.424 0.231267C10.2151 0.0820262 9.96504 0.00122879 9.70828 0C9.45096 0.00310259 9.20069 0.0845067 8.99079 0.233376C8.78088 0.382245 8.6213 0.591517 8.53328 0.833333L6.61661 6.25H1.24995C0.992053 6.25072 0.740696 6.3312 0.530336 6.48039C0.319975 6.62958 0.16091 6.84019 0.074946 7.08333C-0.0114134 7.32592 -0.0217859 7.58907 0.0452111 7.8377C0.112208 8.08634 0.253392 8.30865 0.449946 8.475L4.99995 12.225L3.08328 17.9333C3.00003 18.1841 2.99836 18.4547 3.07852 18.7065C3.15868 18.9582 3.31654 19.1781 3.52944 19.3345C3.74235 19.491 3.99934 19.5759 4.26354 19.5772C4.52773 19.5785 4.78554 19.496 4.99995 19.3417L8.80828 16.5417C8.8406 16.5185 8.86562 16.4866 8.88039 16.4497C8.89516 16.4128 8.89905 16.3724 8.89161 16.3333C8.7979 15.8951 8.75041 15.4482 8.74995 15V14.9417Z"/><path d="M15 10C14.0111 10 13.0444 10.2932 12.2222 10.8427C11.3999 11.3921 10.759 12.173 10.3806 13.0866C10.0022 14.0002 9.90315 15.0055 10.0961 15.9755C10.289 16.9454 10.7652 17.8363 11.4645 18.5355C12.1637 19.2348 13.0546 19.711 14.0246 19.9039C14.9945 20.0969 15.9998 19.9978 16.9134 19.6194C17.827 19.241 18.6079 18.6001 19.1573 17.7779C19.7068 16.9556 20 15.9889 20 15C20 13.6739 19.4732 12.4021 18.5355 11.4645C17.5979 10.5268 16.3261 10 15 10ZM16.6667 15.625H13.3333C13.1676 15.625 13.0086 15.5592 12.8914 15.4419C12.7742 15.3247 12.7083 15.1658 12.7083 15C12.7083 14.8342 12.7742 14.6753 12.8914 14.5581C13.0086 14.4408 13.1676 14.375 13.3333 14.375H16.6667C16.8324 14.375 16.9914 14.4408 17.1086 14.5581C17.2258 14.6753 17.2917 14.8342 17.2917 15C17.2917 15.1658 17.2258 15.3247 17.1086 15.4419C16.9914 15.5592 16.8324 15.625 16.6667 15.625Z"/></g><defs><clipPath id="a"><path fill="#fff" d="M0 0H20V20H0z"/></clipPath></defs></svg>