<svg xmlns="http://www.w3.org/2000/svg" fill="none" viewBox="0 0 47 50"><path fill="#fff" d="m29.862 20.981-2.693-.23v14.294l-4.013.711-.01-15.358-3.41-.302v-5.63l10.126 1.77v4.745Zm7.643 12.256-2.382.413-.277-2.083-2.32.302-.29 2.292-3.069.543 3.038-18.025 2.883.501 2.417 16.057Zm-3.084-5.191-.638-5.504h-.14l-.645 5.587 1.423-.083ZM21.153 50c13.73 0 24.858-11.194 24.858-25 0-13.808-11.126-25-24.857-25C12.546 0 4.962 4.401.5 11.09l6.889 1.214 1.895 14.51c.007-.024.138-.01.138-.01l2.08-13.778 6.893 1.206v22.367l-4.351.761v-9.61s.16-4.14.066-4.848c0 0-.19.005-.193-.011l-2.595 14.957-4.323.763L3.822 22.5l-.191-.014c-.068.584.232 5.64.232 5.64v11.037l-2.84.5C5.54 45.924 12.872 50 21.152 50Z"/></svg>