<svg xmlns="http://www.w3.org/2000/svg" fill="none" viewBox="0 0 301 49"><path fill="#fff" d="m112.774 32.552-.918-7.777c-.143-.929-.737-1.749-1.617-2.225-1.41-.761-4.521-1.616-9.393-1.616-4.873 0-7.983.855-9.394 1.616-.88.476-1.474 1.296-1.617 2.224l-.918 7.778c-.067.44-.102.884-.102 1.328v9.96c0 .207.184.375.41.375h1.511v2.038c0 .855.756 1.549 1.688 1.549h.016c.932 0 1.688-.694 1.688-1.55v-2.037h13.436v2.038c0 .855.756 1.549 1.688 1.549h.016c.932 0 1.688-.694 1.688-1.55v-2.037h1.511c.226 0 .41-.168.41-.376V33.88c0-.444-.034-.888-.102-1.328h-.001Zm-16.79-9.287h9.723a.766.766 0 1 1 0 1.532h-9.723a.766.766 0 1 1 0-1.532Zm-3.552 17.54a1.711 1.711 0 1 1 0-3.423 1.711 1.711 0 0 1 0 3.422Zm-.852-6.92a.769.769 0 0 1-.761-.868l.013-.096.004-.025.657-6.07a.768.768 0 0 1 .764-.686h17.179c.392 0 .72.295.763.685l.658 6.07.003.026.013.096a.769.769 0 0 1-.761.868H91.58Zm17.68 6.92a1.712 1.712 0 1 1 0-3.424 1.712 1.712 0 0 1 0 3.423ZM92.948 16.15a.65.65 0 0 0 .913.083c1.911-1.539 4.34-2.46 6.985-2.46 2.644 0 5.073.921 6.984 2.46a.65.65 0 0 0 .913-.083.598.598 0 0 0-.077-.844 12.337 12.337 0 0 0-7.82-2.78 12.337 12.337 0 0 0-7.82 2.78.599.599 0 0 0-.078.844ZM86.08 7.67c.441.545 1.244.614 1.802.189a21.327 21.327 0 0 1 12.963-4.366c4.872 0 9.364 1.627 12.963 4.366.558.425 1.361.356 1.803-.19.425-.524.356-1.294-.178-1.706A23.81 23.81 0 0 0 100.845 1a23.81 23.81 0 0 0-14.588 4.963c-.534.412-.602 1.182-.178 1.706Z"/><path fill="#fff" d="M89.705 12.145c.333.412.94.461 1.359.137a15.906 15.906 0 0 1 9.781-3.344c3.685 0 7.079 1.248 9.782 3.344.419.324 1.026.275 1.359-.137a.898.898 0 0 0-.127-1.274 17.77 17.77 0 0 0-11.014-3.803 17.77 17.77 0 0 0-11.013 3.803.897.897 0 0 0-.127 1.274ZM18.807 21h12.991v26.81h-8.095v-7.606c0-4.017.087-7.795.263-11.334l-1.092 4.744-3.389 14.196h-6.928L9.093 33.614a221.778 221.778 0 0 1-1.017-4.518 274.2 274.2 0 0 1 .226 11.108v7.606H.206V21h12.99l2.11 10.167.753 3.803c.3-1.707.54-2.975.715-3.803L18.807 21ZM57.213 21v7.305h-7.418V47.81h-8.51V28.305h-7.418V21h23.346ZM83.14 47.81h-8.811l-1.055-3.502h-9.64L62.58 47.81h-8.51L63.145 21h10.393l9.602 26.81Zm-17.698-9.715h5.95l-1.846-6.175-.338-1.168a54.01 54.01 0 0 0-.377-1.167 79.336 79.336 0 0 1-.414-1.657l-1.13 3.992-1.845 6.175ZM142.276 33.426a6.327 6.327 0 0 1 2.41 1.506 7.109 7.109 0 0 1 1.619 2.335c.376.853.565 1.732.565 2.636 0 2.46-.829 4.392-2.486 5.798-1.656 1.406-4.192 2.109-7.606 2.109h-14.572V21h14.309c2.209 0 4.004.314 5.384.941 1.381.628 2.372 1.456 2.975 2.486a6.592 6.592 0 0 1 .904 3.388c0 1.306-.314 2.448-.942 3.427-.602.954-1.456 1.682-2.56 2.184Zm-11.56-5.874v3.765h4.18c.702 0 1.23-.163 1.581-.49.351-.326.527-.79.527-1.392 0-.603-.176-1.067-.527-1.394-.351-.326-.879-.49-1.581-.49h-4.18Zm5.234 13.706c.703 0 1.23-.163 1.581-.49.352-.326.528-.79.528-1.393 0-.602-.176-1.067-.528-1.393-.351-.326-.878-.49-1.581-.49h-5.234v3.766h5.234ZM161.366 28.38h7.832v19.43h-7.681v-2.824c-.628 1.13-1.469 1.958-2.523 2.485-1.055.527-2.26.79-3.615.79-2.084 0-3.715-.627-4.895-1.882-1.155-1.255-1.732-3.238-1.732-5.95V28.38h7.832v10.77c0 .803.176 1.43.527 1.882.377.452.941.678 1.694.678.703 0 1.306-.214 1.808-.64.502-.427.753-1.08.753-1.958V28.38ZM180.729 48.45c-6.276 0-9.589-2.297-9.941-6.89h7.456c.075.677.326 1.166.753 1.468.427.301 1.092.452 1.996.452 1.581 0 2.372-.377 2.372-1.13 0-.326-.126-.577-.377-.753-.251-.176-.677-.314-1.28-.414l-3.803-.527c-2.259-.302-3.979-.967-5.159-1.996-1.154-1.054-1.732-2.46-1.732-4.217 0-2.134.829-3.753 2.485-4.858 1.657-1.104 4.042-1.657 7.155-1.657 3.364 0 5.786.615 7.267 1.845 1.481 1.205 2.284 2.8 2.41 4.783h-7.041c-.051-.653-.277-1.117-.678-1.394-.402-.3-1.054-.451-1.958-.451-.778 0-1.343.087-1.695.263-.351.176-.527.44-.527.79 0 .302.126.553.377.754.251.176.678.314 1.28.414l3.803.527c2.46.352 4.242 1.042 5.347 2.071 1.13 1.004 1.694 2.36 1.694 4.067 0 1.481-.401 2.736-1.205 3.765-.803 1.005-1.97 1.77-3.501 2.297-1.507.527-3.339.791-5.498.791ZM220.61 21v7.305h-7.417V47.81h-8.51V28.305h-7.418V21h23.345ZM230.01 26.799h-7.832V21h7.832v5.799Zm0 21.01h-7.832V28.38h7.832v19.43ZM258.299 27.928c1.28 0 2.409.264 3.388.791.98.502 1.745 1.28 2.297 2.335.553 1.054.829 2.372.829 3.953V47.81h-7.832V37.04c0-.803-.163-1.43-.49-1.882-.326-.452-.828-.678-1.506-.678-.628 0-1.167.214-1.619.64-.452.427-.678 1.08-.678 1.958V47.81h-7.832V37.04c0-.803-.163-1.43-.489-1.882-.327-.452-.829-.678-1.507-.678-.627 0-1.167.214-1.619.64-.452.427-.678 1.08-.678 1.958V47.81h-7.832V28.38h7.682v3.314c1.155-2.51 3.163-3.766 6.025-3.766 1.305 0 2.447.264 3.426.791.979.527 1.707 1.356 2.184 2.485.778-1.08 1.669-1.895 2.673-2.447 1.03-.553 2.222-.829 3.578-.829ZM277.722 48.262c-2.234 0-4.18-.402-5.837-1.205-1.631-.803-2.886-1.958-3.765-3.464-.879-1.532-1.318-3.34-1.318-5.423 0-2.033.439-3.815 1.318-5.346.879-1.557 2.134-2.762 3.765-3.615 1.657-.854 3.59-1.28 5.799-1.28 2.134 0 4.004.401 5.611 1.204 1.631.779 2.899 1.92 3.803 3.427.903 1.48 1.355 3.25 1.355 5.31 0 .627-.05 1.355-.15 2.183h-14.158c0 .98.313 1.757.941 2.335.628.577 1.556.866 2.786.866.829 0 1.494-.138 1.996-.414.527-.277.904-.69 1.13-1.243h7.079c-.352 1.43-1.004 2.648-1.958 3.652-.954.98-2.147 1.732-3.577 2.26-1.431.502-3.038.753-4.82.753Zm3.2-12.276c-.175-1.907-1.292-2.861-3.351-2.861-.979 0-1.745.238-2.297.715-.527.452-.866 1.167-1.016 2.146h6.664ZM295.718 24a4.38 4.38 0 0 1 2.264.608 4.25 4.25 0 0 1 1.619 1.633 4.35 4.35 0 0 1 .607 2.259c0 .823-.202 1.582-.607 2.279a4.43 4.43 0 0 1-1.619 1.632 4.488 4.488 0 0 1-2.264.589 4.524 4.524 0 0 1-2.283-.589 4.574 4.574 0 0 1-1.638-1.633 4.566 4.566 0 0 1-.589-2.278c0-.823.197-1.576.589-2.26a4.382 4.382 0 0 1 1.638-1.632 4.414 4.414 0 0 1 2.283-.608Zm0 8.108c.662 0 1.264-.159 1.803-.475a3.374 3.374 0 0 0 1.289-1.291 3.64 3.64 0 0 0 .478-1.842c0-.67-.159-1.279-.478-1.823a3.337 3.337 0 0 0-1.289-1.31 3.394 3.394 0 0 0-1.803-.494c-.675 0-1.289.165-1.841.494a3.51 3.51 0 0 0-1.288 1.31 3.645 3.645 0 0 0-.46 1.823c0 .67.153 1.285.46 1.842.319.544.748.975 1.288 1.29a3.636 3.636 0 0 0 1.841.476Zm1.803-1.994c.013.165.031.297.056.399.036.1.092.215.165.341h-.828a.68.68 0 0 1-.129-.284 3.885 3.885 0 0 1-.055-.456l-.037-.494c-.024-.266-.08-.45-.165-.55-.086-.102-.246-.152-.479-.152h-1.27v1.936h-.81v-4.822h1.988c.503 0 .902.12 1.196.36.295.228.442.557.442.988 0 .544-.227.924-.681 1.139.331.14.515.437.552.892l.055.703Zm-1.49-1.956c.233 0 .411-.057.533-.17a.67.67 0 0 0 .203-.513c0-.456-.27-.684-.81-.684h-1.178v1.367h1.252Z"/></svg>