<svg width="24" height="24" viewBox="0 0 24 24" fill="none" xmlns="http://www.w3.org/2000/svg">
<path d="M1.99963 5.33349C1.99963 5.88602 2.21913 6.41592 2.60983 6.80662C3.00053 7.19733 3.53043 7.41682 4.08297 7.41682C4.6355 7.41682 5.16541 7.19733 5.55611 6.80662C5.94681 6.41592 6.1663 5.88602 6.1663 5.33349C6.1663 4.78095 5.94681 4.25105 5.55611 3.86035C5.16541 3.46965 4.6355 3.25015 4.08297 3.25015C3.53043 3.25015 3.00053 3.46965 2.60983 3.86035C2.21913 4.25105 1.99963 4.78095 1.99963 5.33349Z" fill="white"/>
<path d="M9.08297 6.16682H21.1663C21.3873 6.16682 21.5993 6.07902 21.7556 5.92274C21.9118 5.76646 21.9996 5.5545 21.9996 5.33349C21.9996 5.11247 21.9118 4.90051 21.7556 4.74423C21.5993 4.58795 21.3873 4.50015 21.1663 4.50015H9.08297C8.86195 4.50015 8.64999 4.58795 8.49371 4.74423C8.33743 4.90051 8.24963 5.11247 8.24963 5.33349C8.24963 5.5545 8.33743 5.76646 8.49371 5.92274C8.64999 6.07902 8.86195 6.16682 9.08297 6.16682Z" fill="white"/>
<path d="M1.99963 12.0001C1.99963 12.5527 2.21913 13.0826 2.60983 13.4733C3.00053 13.864 3.53043 14.0835 4.08297 14.0835C4.6355 14.0835 5.16541 13.864 5.55611 13.4733C5.94681 13.0826 6.1663 12.5527 6.1663 12.0001C6.1663 11.4476 5.94681 10.9177 5.55611 10.527C5.16541 10.1363 4.6355 9.91681 4.08297 9.91681C3.53043 9.91681 3.00053 10.1363 2.60983 10.527C2.21913 10.9177 1.99963 11.4476 1.99963 12.0001Z" fill="white"/>
<path d="M21.1663 11.1668H9.08297C8.86195 11.1668 8.64999 11.2546 8.49371 11.4109C8.33743 11.5672 8.24963 11.7791 8.24963 12.0001C8.24963 12.2212 8.33743 12.4331 8.49371 12.5894C8.64999 12.7457 8.86195 12.8335 9.08297 12.8335H21.1663C21.3873 12.8335 21.5993 12.7457 21.7556 12.5894C21.9118 12.4331 21.9996 12.2212 21.9996 12.0001C21.9996 11.7791 21.9118 11.5672 21.7556 11.4109C21.5993 11.2546 21.3873 11.1668 21.1663 11.1668Z" fill="white"/>
<path d="M1.99963 18.6668C1.99963 19.2194 2.21913 19.7493 2.60983 20.14C3.00053 20.5307 3.53043 20.7502 4.08297 20.7502C4.6355 20.7502 5.16541 20.5307 5.55611 20.14C5.94681 19.7493 6.1663 19.2194 6.1663 18.6668C6.1663 18.1143 5.94681 17.5844 5.55611 17.1937C5.16541 16.803 4.6355 16.5835 4.08297 16.5835C3.53043 16.5835 3.00053 16.803 2.60983 17.1937C2.21913 17.5844 1.99963 18.1143 1.99963 18.6668Z" fill="white"/>
<path d="M21.1663 17.8335H9.08297C8.86195 17.8335 8.64999 17.9213 8.49371 18.0776C8.33743 18.2339 8.24963 18.4458 8.24963 18.6668C8.24963 18.8878 8.33743 19.0998 8.49371 19.2561C8.64999 19.4124 8.86195 19.5002 9.08297 19.5002H21.1663C21.3873 19.5002 21.5993 19.4124 21.7556 19.2561C21.9118 19.0998 21.9996 18.8878 21.9996 18.6668C21.9996 18.4458 21.9118 18.2339 21.7556 18.0776C21.5993 17.9213 21.3873 17.8335 21.1663 17.8335Z" fill="white"/>
</svg>
