<svg width="12" height="12" viewBox="0 0 12 12" fill="none" xmlns="http://www.w3.org/2000/svg">
<path d="M5.97949 0.450928C6.21695 0.450933 6.48241 0.486084 6.70605 0.562256C6.91834 0.634673 7.1187 0.748766 7.26855 0.906982L7.27051 0.906006L11.0938 4.72925H11.0928C11.2117 4.84154 11.3047 4.9823 11.374 5.13452L11.4375 5.2937V5.29468C11.5122 5.51397 11.5498 5.75748 11.5498 5.99976C11.5498 6.18157 11.5283 6.36422 11.4863 6.53687L11.4375 6.70581C11.3636 6.92252 11.2482 7.12894 11.084 7.28003L11.0723 7.28979L7.27148 11.0906L7.27051 11.0935L7.26953 11.0925C7.11959 11.2512 6.91866 11.3647 6.70605 11.4373C6.49543 11.509 6.2639 11.5444 6.03418 11.5476C6.03603 11.5475 6.03775 11.5476 6.03809 11.5476C6.03591 11.5478 6.02977 11.5483 6.02539 11.5486C6.01696 11.5491 5.99731 11.5498 5.97363 11.5486C5.97042 11.5484 5.96689 11.5469 5.96289 11.5466C5.73412 11.5431 5.50351 11.5087 5.29395 11.4373C5.08114 11.3646 4.88035 11.2512 4.73047 11.0925V11.0935L4.72949 11.0925V11.0935L4.72852 11.0916L0.904297 7.26733L0.902344 7.26636L0.90332 7.2644C0.746792 7.1146 0.635107 6.91582 0.563477 6.70581C0.491081 6.49343 0.453577 6.25853 0.451172 6.02417V5.97534C0.453626 5.74119 0.491286 5.50666 0.563477 5.29468V5.2937C0.634892 5.08456 0.746111 4.8844 0.90332 4.73413L0.902344 4.73315L0.904297 4.73218L0.90625 4.72925L4.73047 0.906006C4.88031 0.747727 5.08146 0.634729 5.29395 0.562256C5.50632 0.489884 5.74161 0.453358 5.97559 0.450928H5.97949Z" fill="#FF8601" stroke="#343434" stroke-width="0.812442"/>
<path d="M5.76946 5.37268C5.76946 5.5 5.87268 5.60322 6 5.60322C6.12732 5.60322 6.23054 5.5 6.23054 5.37268L6 5.37268L5.76946 5.37268ZM6 1.94242L4.66899 4.2478L7.33101 4.2478L6 1.94242ZM6 5.37268L6.23054 5.37268L6.23054 4.01726L6 4.01726L5.76946 4.01726L5.76946 5.37268L6 5.37268Z" fill="#4A4A4A"/>
<path d="M7.76367 5.90948C7.63635 5.90948 7.53313 6.01269 7.53313 6.14001C7.53313 6.26734 7.63635 6.37055 7.76367 6.37055L7.76367 6.14001L7.76367 5.90948ZM10.0919 6.14001L7.78656 4.809L7.78656 7.47103L10.0919 6.14001ZM7.76367 6.14001L7.76367 6.37055L8.0171 6.37055L8.0171 6.14001L8.0171 5.90948L7.76367 5.90948L7.76367 6.14001Z" fill="#4A4A4A"/>
<rect x="5.4837" y="3.9295" width="1.02752" height="5.36049" fill="#4A4A4A" stroke="#4A4A4A" stroke-width="0.153692"/>
<path d="M8.64446 6.20256C7.76297 5.82129 6 5.88977 6 9.21385" stroke="#4A4A4A" stroke-width="0.922154"/>
</svg>
