<svg width="40" height="43" viewBox="0 0 40 43" fill="none" xmlns="http://www.w3.org/2000/svg">
<path d="M38.9134 25.9647L37.9498 17.8037C37.7999 16.8296 37.1772 15.9691 36.253 15.4699C34.7735 14.671 31.5093 13.7742 26.3968 13.7742C21.2843 13.7742 18.0202 14.671 16.5406 15.4699C15.6165 15.9691 14.9937 16.8296 14.8438 17.8037L13.8802 25.9647C13.8092 26.4265 13.7734 26.8925 13.7734 27.3585V37.8086C13.7734 38.0263 13.9659 38.203 14.2037 38.203H15.789V40.3411C15.789 41.2384 16.5821 41.9664 17.5605 41.9664H17.5768C18.5551 41.9664 19.3482 41.239 19.3482 40.3411V38.203H33.4464V40.3411C33.4464 41.2384 34.2396 41.9664 35.2179 41.9664H35.2342C36.2125 41.9664 37.0057 41.239 37.0057 40.3411V38.203H38.591C38.8287 38.203 39.0212 38.0263 39.0212 37.8086V27.3585C39.0212 26.892 38.9844 26.4265 38.9134 25.9647ZM21.2959 16.2194H31.4977C31.9416 16.2194 32.3014 16.5792 32.3014 17.0231C32.3014 17.467 31.9416 17.8268 31.4977 17.8268H21.2959C20.852 17.8268 20.4922 17.467 20.4922 17.0231C20.4922 16.5792 20.852 16.2194 21.2959 16.2194ZM17.5683 34.6238C16.5769 34.6238 15.7727 33.8201 15.7727 32.8281C15.7727 31.8361 16.5764 31.0324 17.5683 31.0324C18.5603 31.0324 19.364 31.8361 19.364 32.8281C19.364 33.8201 18.5603 34.6238 17.5683 34.6238ZM16.6747 27.3632C16.1882 27.3632 15.8142 26.9356 15.8758 26.4528C15.88 26.4191 15.8847 26.386 15.8894 26.3523L15.8931 26.3255L16.5832 19.9554C16.6274 19.5467 16.9729 19.2364 17.3842 19.2364H35.4104C35.8217 19.2364 36.1668 19.5462 36.2115 19.9554L36.9016 26.3255L36.9053 26.3523C36.91 26.3855 36.9142 26.4191 36.9189 26.4528C36.9799 26.9351 36.6065 27.3632 36.12 27.3632H16.6747ZM35.2258 34.6238C34.2344 34.6238 33.4301 33.8201 33.4301 32.8281C33.4301 31.8361 34.2338 31.0324 35.2258 31.0324C36.2178 31.0324 37.0215 31.8361 37.0215 32.8281C37.0215 33.8201 36.2178 34.6238 35.2258 34.6238Z" fill="#0E61A9"/>
<path d="M14.9014 0.98291C15.4965 0.982918 16.1614 1.0708 16.7197 1.2583L16.9219 1.33154C17.3768 1.50915 17.7993 1.76382 18.125 2.10303H18.126L18.127 2.104L18.1318 2.10791H18.1309L27.7578 11.5903L27.9062 11.7358C28.2399 12.0905 28.4821 12.5403 28.6445 13.0093V13.0103C28.8325 13.5541 28.9257 14.1585 28.9258 14.7603C28.9258 15.3622 28.8328 15.9677 28.6445 16.5122V16.5132C28.4583 17.0509 28.1679 17.5593 27.7588 17.9302L27.7441 17.9429L18.127 27.4194L18.125 27.4175C17.7992 27.7572 17.3772 28.0132 16.9219 28.1909L16.7197 28.2642C16.1764 28.4466 15.5762 28.5348 14.9824 28.5376L14.9814 28.5366C14.9655 28.5372 14.946 28.537 14.9238 28.5366C14.9212 28.5366 14.9186 28.5366 14.916 28.5366C14.908 28.5364 14.8992 28.538 14.8906 28.5376C14.8869 28.5374 14.8831 28.5359 14.8789 28.5356C14.3747 28.5295 13.8676 28.4625 13.3955 28.3276L13.1895 28.2642C12.658 28.0856 12.1557 27.8079 11.7822 27.4185L2.125 17.9058L2.11914 17.9009L2.11523 17.897V17.896C1.72438 17.528 1.44532 17.0348 1.26465 16.5132V16.5122C1.0825 15.9857 0.988481 15.4027 0.982422 14.8208V14.6987C0.988648 14.1173 1.08292 13.5358 1.26465 13.0103V13.0093C1.44471 12.4895 1.72359 11.9939 2.11621 11.6245L2.11523 11.6235L2.11914 11.6196L2.125 11.6147L11.7822 2.10303C12.1557 1.7138 12.6583 1.43677 13.1895 1.2583C13.7198 1.0803 14.3063 0.988914 14.8916 0.98291H14.9014Z" fill="#FF8601" stroke="white" stroke-width="1.96626"/>
<path d="M14.3922 13.1987C14.3922 13.5069 14.6421 13.7567 14.9502 13.7567C15.2583 13.7567 15.5081 13.5069 15.5081 13.1987L14.9502 13.1987L14.3922 13.1987ZM14.9502 4.66461L11.7289 10.2441L18.1715 10.2441L14.9502 4.66461ZM14.9502 13.1987L15.5081 13.1987L15.5081 9.68612L14.9502 9.68612L14.3923 9.68612L14.3922 13.1987L14.9502 13.1987Z" fill="#4A4A4A"/>
<path d="M19.4053 14.548C19.0971 14.548 18.8473 14.7978 18.8473 15.106C18.8473 15.4141 19.0971 15.6639 19.4053 15.6639L19.4053 15.106L19.4053 14.548ZM25.2855 15.106L19.706 11.8847L19.706 18.3273L25.2855 15.106ZM19.4053 15.106L19.4053 15.6639L20.264 15.6639L20.264 15.106L20.264 14.548L19.4053 14.548L19.4053 15.106Z" fill="#4A4A4A"/>
<rect x="14.0288" y="9.9853" width="1.83494" height="12.582" fill="#4A4A4A" stroke="#4A4A4A" stroke-width="0.371964"/>
<path d="M21.6289 15.2615C19.4027 14.3129 14.9502 14.4833 14.9502 22.7533" stroke="#4A4A4A" stroke-width="2.23178"/>
</svg>
