<svg viewBox="0 0 54 32" fill="none" xmlns="http://www.w3.org/2000/svg">

<g fill="#0E61A9" clip-path="url(#a)" transform="translate(12, 12)">
<path fill="#0E61A9" d="m18.879 8.648-.684-5.79c-.106-.69-.548-1.3-1.203-1.655C15.942.636 13.626 0 10 0 6.373 0 4.057.636 3.007 1.203c-.655.354-1.097.965-1.203 1.656l-.684 5.79c-.05.327-.076.657-.076.988v7.413c0 .155.137.28.306.28h1.124v1.517c0 .637.563 1.153 1.257 1.153h.011C4.436 20 5 19.484 5 18.847V17.33h10.002v1.517c0 .637.562 1.153 1.256 1.153h.012c.694 0 1.257-.516 1.257-1.153V17.33h1.124c.169 0 .306-.125.306-.28V9.637c0-.331-.026-.661-.076-.989h-.001ZM6.381 1.735h7.237a.57.57 0 1 1 0 1.14H6.381a.57.57 0 1 1 0-1.14ZM3.736 14.79a1.274 1.274 0 1 1 0-2.548 1.274 1.274 0 0 1 0 2.548Zm-.633-5.15a.572.572 0 0 1-.567-.647l.01-.07.002-.02.49-4.519a.572.572 0 0 1 .568-.51h12.788c.292 0 .537.22.568.51l.49 4.52.002.018.01.071a.573.573 0 0 1-.567.646H3.103Zm13.16 5.15a1.274 1.274 0 1 1 0-2.548 1.274 1.274 0 0 1 0 2.548Z"/>
<g fill="#0E61A9" clip-path="url(#a)">
<path d="M37.96 15.11a.358.358 0 0 0 .262-.122c.372-.434.889-.72 1.454-.807a.37.37 0 0 0 .313-.363v-2.47a1.41 1.41 0 0 0-1.404-1.404h-3.637a.716.716 0 0 1-.516-.21L33.29 8.592a.377.377 0 0 1-.104-.23.363.363 0 0 1 .067-.242l2.975-4.055a.34.34 0 0 0-.089-.501 6.333 6.333 0 0 0-3.483-1.068c-1.354 0-2.673.43-3.768 1.227a.372.372 0 0 1-.473 0l-.953-.96-.005.015-.77-.77C26.536 1.846 25.57.886 24.282.917c-.544.014-1.355.222-2.115 1.13a.72.72 0 1 0 1.108.924c.335-.401.675-.601 1.037-.612.576-.02 1.155.457 1.326.639L27.7 5.057a.666.666 0 0 0 .05.045L37.69 15a.352.352 0 0 0 .27.11v.001ZM39.966 15.019c-1.123 0-2.034.91-2.034 2.032a2.034 2.034 0 0 0 4.068 0 2.034 2.034 0 0 0-2.034-2.032Z"/>
<path d="M27.857 6.253a.365.365 0 0 0-.284-.101.356.356 0 0 0-.27.152 1.398 1.398 0 0 0-.184 1.25l-.005.005s1.04 3.539 3.342 6.067a.348.348 0 0 1-.012.479L29.25 15.3a2.034 2.034 0 0 0-3.065 1.75 2.033 2.033 0 1 0 3.819-.976l1.26-1.255a.349.349 0 0 1 .456-.031c1.37 1.034 3.068 1.623 5.12 1.187a.349.349 0 0 0 .17-.587l-9.153-9.136Z"/>
</g>
<defs>
<!-- <clipPath id="a">
<path fill="#fff" d="M22 0h20v20H22z" transform="translate(5, 5)"/>
</clipPath> -->
</defs>
</g> 

<g  transform="scale(.8)">
<path d="M14.9014 0.98291C15.4965 0.982918 16.1614 1.0708 16.7197 1.2583L16.9219 1.33154C17.3768 1.50915 17.7993 1.76382 18.125 2.10303H18.126L18.127 2.104L18.1318 2.10791H18.1309L27.7578 11.5903L27.9062 11.7358C28.2399 12.0905 28.4821 12.5403 28.6445 13.0093V13.0103C28.8325 13.5541 28.9257 14.1585 28.9258 14.7603C28.9258 15.3622 28.8328 15.9677 28.6445 16.5122V16.5132C28.4583 17.0509 28.1679 17.5593 27.7588 17.9302L27.7441 17.9429L18.127 27.4194L18.125 27.4175C17.7992 27.7572 17.3772 28.0132 16.9219 28.1909L16.7197 28.2642C16.1764 28.4466 15.5762 28.5348 14.9824 28.5376L14.9814 28.5366C14.9655 28.5372 14.946 28.537 14.9238 28.5366C14.9212 28.5366 14.9186 28.5366 14.916 28.5366C14.908 28.5364 14.8992 28.538 14.8906 28.5376C14.8869 28.5374 14.8831 28.5359 14.8789 28.5356C14.3747 28.5295 13.8676 28.4625 13.3955 28.3276L13.1895 28.2642C12.658 28.0856 12.1557 27.8079 11.7822 27.4185L2.125 17.9058L2.11914 17.9009L2.11523 17.897V17.896C1.72438 17.528 1.44532 17.0348 1.26465 16.5132V16.5122C1.0825 15.9857 0.988481 15.4027 0.982422 14.8208V14.6987C0.988648 14.1173 1.08292 13.5358 1.26465 13.0103V13.0093C1.44471 12.4895 1.72359 11.9939 2.11621 11.6245L2.11523 11.6235L2.11914 11.6196L2.125 11.6147L11.7822 2.10303C12.1557 1.7138 12.6583 1.43677 13.1895 1.2583C13.7198 1.0803 14.3063 0.988914 14.8916 0.98291H14.9014Z" fill="#FF8601" stroke="white" stroke-width="1.96626"/>
<path d="M14.3922 13.1987C14.3922 13.5069 14.6421 13.7567 14.9502 13.7567C15.2583 13.7567 15.5081 13.5069 15.5081 13.1987L14.9502 13.1987L14.3922 13.1987ZM14.9502 4.66461L11.7289 10.2441L18.1715 10.2441L14.9502 4.66461ZM14.9502 13.1987L15.5081 13.1987L15.5081 9.68612L14.9502 9.68612L14.3923 9.68612L14.3922 13.1987L14.9502 13.1987Z" fill="#4A4A4A"/>
<path d="M19.4053 14.548C19.0971 14.548 18.8473 14.7978 18.8473 15.106C18.8473 15.4141 19.0971 15.6639 19.4053 15.6639L19.4053 15.106L19.4053 14.548ZM25.2855 15.106L19.706 11.8847L19.706 18.3273L25.2855 15.106ZM19.4053 15.106L19.4053 15.6639L20.264 15.6639L20.264 15.106L20.264 14.548L19.4053 14.548L19.4053 15.106Z" fill="#4A4A4A"/>
<rect x="14.0288" y="9.9853" width="1.83494" height="12.582" fill="#4A4A4A" stroke="#4A4A4A" stroke-width="0.371964"/>
<path d="M21.6289 15.2615C19.4027 14.3129 14.9502 14.4833 14.9502 22.7533" stroke="#4A4A4A" stroke-width="2.23178"/>
</g>
</svg>
 