<svg width="20" height="20" viewBox="0 0 20 20" fill="none" xmlns="http://www.w3.org/2000/svg">
<path fill-rule="evenodd" clip-rule="evenodd" d="M20 10C20 15.5229 15.5228 20 10 20C4.47715 20 0 15.5229 0 10C0 4.47716 4.47715 0 10 0C15.5228 0 20 4.47716 20 10ZM5.67094 5.67096C6.08936 5.25254 6.76776 5.25254 7.18617 5.67096L10 8.48477L12.8138 5.67096C13.2322 5.25254 13.9106 5.25254 14.329 5.67096C14.7474 6.08937 14.7474 6.76777 14.329 7.18619L11.5152 10L14.329 12.8138C14.7474 13.2322 14.7474 13.9106 14.329 14.329C13.9106 14.7474 13.2322 14.7474 12.8138 14.329L10 11.5152L7.18617 14.329C6.76776 14.7474 6.08936 14.7474 5.67094 14.329C5.25253 13.9106 5.25253 13.2322 5.67094 12.8138L8.48476 10L5.67094 7.18619C5.25253 6.76777 5.25253 6.08937 5.67094 5.67096Z" fill="#202025"/>
</svg>
