<svg xmlns="http://www.w3.org/2000/svg" width="20" height="20" fill="none"><path fill="#0E61A9" d="M0 3.333a2.083 2.083 0 1 0 4.167 0 2.083 2.083 0 0 0-4.167 0ZM7.083 4.167h12.084a.833.833 0 0 0 0-1.667H7.083a.833.833 0 0 0 0 1.667ZM0 10a2.083 2.083 0 1 0 4.167 0A2.083 2.083 0 0 0 0 10ZM19.167 9.167H7.083a.833.833 0 0 0 0 1.666h12.084a.834.834 0 0 0 0-1.666ZM0 16.667a2.083 2.083 0 1 0 4.167 0 2.083 2.083 0 0 0-4.167 0ZM19.167 15.833H7.083a.833.833 0 1 0 0 1.667h12.084a.833.833 0 0 0 0-1.667Z"/></svg>