<svg xmlns="http://www.w3.org/2000/svg" width="20" height="20" fill="none"><g clip-path="url(#a)"><path fill="#fff" fill-rule="evenodd" d="M1.5 7.5C1.5 3.916 4.414 1 8 1c3.583 0 6.5 2.916 6.5 6.5S11.582 14 8 14a6.507 6.507 0 0 1-6.5-6.5Zm17.868 11.662-5.943-6.484A7.447 7.447 0 0 0 15.5 7.5c0-2.003-.78-3.887-2.197-5.303A7.454 7.454 0 0 0 8 0C5.997 0 4.113.78 2.697 2.197A7.454 7.454 0 0 0 .5 7.5c0 2.003.78 3.887 2.197 5.303A7.454 7.454 0 0 0 8 15a7.44 7.44 0 0 0 4.688-1.645l5.943 6.483a.496.496 0 0 0 .707.031.5.5 0 0 0 .03-.707Z" clip-rule="evenodd"/></g><defs><clipPath id="a"><path fill="#fff" d="M0 0h20v20.002H0z"/></clipPath></defs></svg>