<svg xmlns="http://www.w3.org/2000/svg" fill="none" viewBox="0 0 20 20"><g fill="#fff" clip-path="url(#a)"><path d="M8.75 14.9417C8.75029 14.9031 8.73944 14.8653 8.71874 14.8328C8.69804 14.8002 8.66838 14.7744 8.63333 14.7583C8.60143 14.7365 8.56367 14.7248 8.525 14.7248C8.48633 14.7248 8.44857 14.7365 8.41667 14.7583L5.6 16.8333C5.56584 16.8611 5.52317 16.8762 5.47917 16.8762C5.43516 16.8762 5.39249 16.8611 5.35833 16.8333C5.32055 16.8093 5.29236 16.7728 5.27866 16.7302C5.26496 16.6876 5.26662 16.6415 5.28333 16.6L6.75 12.2083C6.80389 12.0486 6.80804 11.8762 6.76192 11.714C6.71579 11.5519 6.62156 11.4075 6.49167 11.3L2.85 8.28333C2.81757 8.25687 2.79386 8.22125 2.78197 8.18111C2.77008 8.14098 2.77056 8.09819 2.78333 8.05833C2.79847 8.01729 2.82568 7.98179 2.86138 7.9565C2.89707 7.93122 2.93959 7.91733 2.98333 7.91667H7.20833C7.3806 7.91598 7.54842 7.86192 7.6887 7.76194C7.82897 7.66195 7.93482 7.52095 7.99167 7.35833L9.50833 3.05833C9.52095 3.01506 9.54727 2.97705 9.58333 2.95C9.61939 2.92295 9.66326 2.90833 9.70833 2.90833C9.75341 2.90833 9.79727 2.92295 9.83333 2.95C9.86939 2.97705 9.89571 3.01506 9.90833 3.05833L11.425 7.35833C11.4818 7.52095 11.5877 7.66195 11.728 7.76194C11.8683 7.86192 12.0361 7.91598 12.2083 7.91667H16.4333C16.4759 7.91784 16.5172 7.93205 16.5514 7.95738C16.5857 7.98272 16.6114 8.01795 16.625 8.05833C16.6413 8.09705 16.6444 8.14003 16.6338 8.18068C16.6233 8.22134 16.5997 8.2574 16.5667 8.28333L16.2583 8.54167C16.2275 8.56583 16.2041 8.5982 16.1909 8.63504C16.1776 8.67189 16.175 8.71174 16.1833 8.75C16.1948 8.78638 16.2154 8.81923 16.2431 8.84547C16.2708 8.87171 16.3047 8.89047 16.3417 8.9C16.8056 9.00263 17.2559 9.15925 17.6833 9.36667C17.7169 9.3882 17.7559 9.39965 17.7958 9.39965C17.8357 9.39965 17.8748 9.3882 17.9083 9.36667L18.975 8.48333C19.1706 8.31612 19.3099 8.09259 19.3737 7.84328C19.4376 7.59398 19.4229 7.33104 19.3318 7.09037C19.2406 6.8497 19.0774 6.64304 18.8644 6.4986C18.6514 6.35416 18.399 6.27898 18.1417 6.28333H12.8L10.875 0.833333C10.7906 0.590851 10.633 0.380507 10.4241 0.231267C10.2152 0.0820262 9.96509 0.00122879 9.70833 0C9.45101 0.00310259 9.20075 0.0845067 8.99084 0.233376C8.78093 0.382245 8.62135 0.591517 8.53333 0.833333L6.61667 6.25H1.25C0.992106 6.25072 0.740749 6.3312 0.530389 6.48039C0.320029 6.62958 0.160963 6.84019 0.0749994 7.08333C-0.01136 7.32592 -0.0217325 7.58907 0.0452646 7.8377C0.112262 8.08634 0.253446 8.30865 0.449999 8.475L5 12.225L3.08333 17.9333C3.00008 18.1841 2.99841 18.4547 3.07857 18.7065C3.15873 18.9582 3.31659 19.1781 3.5295 19.3345C3.7424 19.491 3.99939 19.5759 4.26359 19.5772C4.52778 19.5785 4.78559 19.496 5 19.3417L8.80833 16.5417C8.84065 16.5185 8.86568 16.4866 8.88044 16.4497C8.89521 16.4128 8.8991 16.3724 8.89167 16.3333C8.79795 15.8951 8.75047 15.4482 8.75 15V14.9417Z"/><path d="M15 10C14.0111 10 13.0444 10.2932 12.2222 10.8427C11.3999 11.3921 10.759 12.173 10.3806 13.0866C10.0022 14.0002 9.90315 15.0055 10.0961 15.9755C10.289 16.9454 10.7652 17.8363 11.4645 18.5355C12.1637 19.2348 13.0546 19.711 14.0246 19.9039C14.9945 20.0969 15.9998 19.9978 16.9134 19.6194C17.827 19.241 18.6079 18.6001 19.1573 17.7779C19.7068 16.9556 20 15.9889 20 15C20 13.6739 19.4732 12.4021 18.5355 11.4645C17.5979 10.5268 16.3261 10 15 10ZM16.6667 15.625H13.3333C13.1676 15.625 13.0086 15.5592 12.8914 15.4419C12.7742 15.3247 12.7083 15.1658 12.7083 15C12.7083 14.8342 12.7742 14.6753 12.8914 14.5581C13.0086 14.4408 13.1676 14.375 13.3333 14.375H16.6667C16.8324 14.375 16.9914 14.4408 17.1086 14.5581C17.2258 14.6753 17.2917 14.8342 17.2917 15C17.2917 15.1658 17.2258 15.3247 17.1086 15.4419C16.9914 15.5592 16.8324 15.625 16.6667 15.625Z"/></g><defs><clipPath id="a"><path fill="#fff" d="M0 0H20V20H0z"/></clipPath></defs></svg>