<svg xmlns="http://www.w3.org/2000/svg" fill="none" viewBox="0 0 20 20"><g clip-path="url(#a)"><path fill="#202025" d="M19.806 7.2a1.282 1.282 0 0 0-1.197-.85h-5.17a.424.424 0 0 1-.4-.28L11.19.807A1.29 1.29 0 0 0 9.992 0a1.265 1.265 0 0 0-1.189.849l-1.86 5.238a.425.425 0 0 1-.398.28h-5.17a1.274 1.274 0 0 0-1.198.85 1.29 1.29 0 0 0 .382 1.4l4.398 3.651a.424.424 0 0 1 .136.459l-1.85 5.544a1.273 1.273 0 0 0 1.96 1.434l4.534-3.328a.416.416 0 0 1 .501 0l4.542 3.329a1.274 1.274 0 0 0 2.004-1.435l-1.85-5.544a.424.424 0 0 1 .135-.459l4.406-3.66a1.282 1.282 0 0 0 .331-1.408Z"/></g><defs><clipPath id="a"><path fill="#fff" d="M0 0h20v20H0z"/></clipPath></defs></svg>