<svg xmlns="http://www.w3.org/2000/svg" fill="none" viewBox="0 0 20 20"><g fill="#0E61A9" clip-path="url(#a)"><path d="M15.96 15.11a.358.358 0 0 0 .262-.122c.372-.434.889-.72 1.454-.807a.37.37 0 0 0 .313-.363v-2.47a1.41 1.41 0 0 0-1.404-1.404h-3.637a.716.716 0 0 1-.516-.21L11.29 8.592a.377.377 0 0 1-.104-.23.363.363 0 0 1 .067-.242l2.975-4.055a.34.34 0 0 0-.089-.501 6.333 6.333 0 0 0-3.483-1.068c-1.354 0-2.673.43-3.768 1.227a.373.373 0 0 1-.472 0l-.954-.96-.005.015-.77-.77C4.536 1.846 3.57.886 2.282.917 1.738.931.927 1.14.167 2.047a.72.72 0 1 0 1.108.924c.336-.401.675-.601 1.037-.612.576-.02 1.155.457 1.326.639L5.7 5.057a.673.673 0 0 0 .05.045L15.69 15a.352.352 0 0 0 .27.11v.001ZM17.966 15.019c-1.123 0-2.034.91-2.034 2.032a2.034 2.034 0 0 0 4.068 0 2.034 2.034 0 0 0-2.034-2.032Z"/><path d="M5.857 6.253a.364.364 0 0 0-.284-.101.356.356 0 0 0-.27.152 1.398 1.398 0 0 0-.184 1.25l-.005.005s1.04 3.539 3.342 6.067a.348.348 0 0 1-.012.479L7.25 15.3a2.034 2.034 0 0 0-3.065 1.75 2.033 2.033 0 1 0 3.818-.976l1.261-1.255a.349.349 0 0 1 .456-.031c1.37 1.034 3.067 1.623 5.12 1.187a.349.349 0 0 0 .17-.587L5.856 6.253Z"/></g><defs><clipPath id="a"><path fill="#fff" d="M0 0h20v20H0z"/></clipPath></defs></svg>